<?xml version="1.0" encoding="UTF-8" standalone="no"?>
<!DOCTYPE svg PUBLIC "-//W3C//DTD SVG 1.1//EN" "http://www.w3.org/Graphics/SVG/1.1/DTD/svg11.dtd">
<svg width="100%" height="100%" viewBox="0 0 3450 1500" version="1.1" xmlns="http://www.w3.org/2000/svg" xmlns:xlink="http://www.w3.org/1999/xlink" xml:space="preserve" xmlns:serif="http://www.serif.com/" style="fill-rule:evenodd;clip-rule:evenodd;stroke-linecap:round;stroke-linejoin:round;stroke-miterlimit:1.5;">
    <g transform="matrix(0.539568,0,0,0.539568,1045.1,331.39)">
        <g transform="matrix(750.133,0,0,750.133,4328.76,1042.88)">
        </g>
        <text x="149.188px" y="1042.88px" style="font-family:'KristenITC-Regular', 'Kristen ITC';font-stretch:semi-expanded;font-size:750.133px;fill:rgb(146,157,169);">GoatSquad</text>
    </g>
    <g transform="matrix(0.757753,0,0,0.736602,65.4451,271.9)">
        <g transform="matrix(1.83581,0,0,1.83581,-182.262,-652.404)">
            <path d="M201.062,787.793L623.312,787.898L620.609,1010.41C572.288,974.021 496.914,968.044 453.926,942.324L280.982,975.973L180.033,853.113L201.062,787.793Z" style="fill:rgb(250,250,251);"/>
        </g>
        <g transform="matrix(1.27076,0,0,1.27076,-193.91,-280.46)">
            <path d="M235.402,762.568C219.819,755.89 269.509,833.271 308.468,848.745C325.361,855.455 844.852,855.829 844.852,855.829L928.684,703.878L235.402,762.568Z" style="fill:rgb(250,250,251);"/>
        </g>
        <g transform="matrix(1.83581,0,0,1.83581,-182.262,-652.404)">
            <path d="M598.919,802.552C621.336,793.789 642.564,778.039 654.58,750.065" style="fill:rgb(250,250,251);stroke:rgb(70,87,111);stroke-width:9.11px;"/>
        </g>
        <g transform="matrix(1.83581,0,0,1.83581,-182.262,-652.404)">
            <path d="M662.022,725.267C675.793,652.618 636.434,619.172 615.374,596.185C614.846,595.608 633.445,591.366 661.689,580.72C709.325,562.766 695.935,542.547 666.186,518.986C643.848,501.294 606.677,486.072 602.701,491.905L518.37,461.565C518.37,461.565 493.37,447.965 378.97,445.565C264.57,443.165 243.345,487.475 221.77,486.365C199.166,485.202 132.093,524.245 124.662,530.262C107.67,544.02 86.498,562.894 121.908,583.066C151.157,599.728 194.268,593.047 184.169,603.206C174.07,613.365 132.569,655.77 148.169,717.606C150.521,726.929 153.733,735.347 157.673,742.958" style="fill:rgb(250,250,251);stroke:rgb(146,157,169);stroke-width:9.11px;"/>
        </g>
        <g transform="matrix(1.27076,0,0,1.27076,-193.91,-280.46)">
            <path d="M188.987,517.779C192.013,514.215 216.014,501.347 244.662,522.359C265.971,537.989 275.33,537.357 270.204,544.396C266.967,548.839 255.918,550.068 244.161,550.406C215.246,551.236 178.745,529.841 188.987,517.779Z" style="fill:rgb(189,196,203);"/>
        </g>
        <g transform="matrix(-1.27076,0,0,1.27076,1294.04,-295.376)">
            <path d="M188.987,517.779C192.013,514.215 216.014,501.347 244.662,522.359C265.971,537.989 275.33,537.357 270.204,544.396C266.967,548.839 255.918,550.068 244.161,550.406C215.246,551.236 178.745,529.841 188.987,517.779Z" style="fill:rgb(189,196,203);"/>
        </g>
        <g transform="matrix(1.27076,0,0,1.27076,-193.91,-280.46)">
            <path d="M290.801,869.546C332.985,891.148 487.776,915.041 532.9,988.15C602.772,1101.35 673.172,1066.92 711.103,990.21C728.203,955.628 783.548,951.377 800.676,945.355C818.068,939.24 820.22,885.234 794.513,890.391C785.792,892.141 765.032,883.599 727.049,891.405C665.642,904.025 547.07,905.248 489.683,898.663C452.627,894.411 327.919,860.468 298.138,846.314C290.803,842.829 283.573,865.845 290.801,869.546Z" style="fill:rgb(189,196,203);"/>
        </g>
        <g transform="matrix(1.83581,0,0,1.83581,-182.262,-652.404)">
            <path d="M171.854,763.824C196.253,791.816 233.313,804.755 270.169,812.242" style="fill:rgb(250,250,251);stroke:rgb(146,157,169);stroke-width:9.11px;"/>
        </g>
        <g transform="matrix(1.83581,0,0,1.83581,-182.262,-652.404)">
            <path d="M476.483,821.508C488.247,821.211 502.814,818.787 512.04,818.428C528.303,817.794 533.923,815.38 537.845,814.824C542.25,814.199 554.942,813.702 570.657,810.618" style="fill:rgb(250,250,251);stroke:rgb(146,157,169);stroke-width:9.11px;"/>
        </g>
        <g transform="matrix(1.27076,0,0,1.27076,-193.91,-280.46)">
            <path d="M466.086,894.119C470.11,897.981 635.34,900.994 632.885,899.348" style="fill:none;stroke:rgb(146,157,169);stroke-width:13.16px;"/>
        </g>
        <g transform="matrix(1.83581,0,0,1.83581,-204.291,-652.404)">
            <path d="M299.055,497.096C299.055,497.096 270.696,422.375 250.555,391.097C234.373,365.967 219.977,388.637 213.116,400.046C205.058,413.444 198.098,444.736 196.555,458.097C194.666,474.452 191.553,543.114 238.055,548.096C275.534,552.112 282.113,534.214 287.555,529.096C297.531,519.713 299.055,489.512 299.055,497.096Z" style="fill:rgb(94,114,136);stroke:rgb(146,157,169);stroke-width:9.11px;"/>
        </g>
        <g transform="matrix(-1.83581,0,0,1.83581,1290.31,-653.322)">
            <path d="M299.055,497.096C299.055,497.096 270.696,422.375 250.555,391.097C234.373,365.967 219.977,388.637 213.116,400.046C205.058,413.444 196.914,448.342 196.555,458.097C196.245,466.505 191.553,543.114 238.055,548.096C275.534,552.112 282.113,534.214 287.555,529.096C297.531,519.713 299.055,489.512 299.055,497.096Z" style="fill:rgb(94,114,136);stroke:rgb(146,157,169);stroke-width:9.11px;"/>
        </g>
        <g transform="matrix(1.27076,0,0,1.27076,-193.91,-280.46)">
            <path d="M298.529,336.895C298.903,330.164 270.995,418.793 310.048,466.109C326.473,486.009 376.967,502.847 376.967,502.847C376.967,502.847 384.296,444.073 386.3,426.293C388.021,411.012 373.487,334.56 368.491,338.581C350.754,352.857 300.837,363.75 298.529,336.895Z" style="fill:rgb(107,127,150);"/>
        </g>
        <g transform="matrix(1.27076,0,0,1.27076,-193.91,-280.46)">
            <path d="M298.529,336.895C298.903,330.164 270.995,418.793 310.048,466.109C326.473,486.009 376.967,502.847 376.967,502.847C376.967,502.847 384.296,444.073 386.3,426.293C388.021,411.012 373.487,334.56 368.491,338.581C350.754,352.857 300.837,363.75 298.529,336.895Z" style="fill:rgb(107,127,150);"/>
        </g>
        <g transform="matrix(1.27076,0,0,1.27076,-193.91,-280.46)">
            <path d="M298.529,336.895C298.903,330.164 270.995,418.793 310.048,466.109C326.473,486.009 376.967,502.847 376.967,502.847C376.967,502.847 384.296,444.073 386.3,426.293C388.021,411.012 373.487,334.56 368.491,338.581C350.754,352.857 300.837,363.75 298.529,336.895Z" style="fill:rgb(70,87,111);"/>
        </g>
        <g transform="matrix(-1.27076,0,0,1.27076,1279.24,-274.493)">
            <path d="M298.529,336.895C298.903,330.164 270.995,418.793 310.048,466.109C326.473,486.009 376.967,502.847 376.967,502.847C376.967,502.847 384.296,444.073 386.3,426.293C388.021,411.012 373.487,334.56 368.491,338.581C350.754,352.857 300.837,363.75 298.529,336.895Z" style="fill:rgb(70,87,111);"/>
        </g>
        <g transform="matrix(1.83581,0,0,1.83581,-204.291,-652.404)">
            <path d="M561.136,398.008C561.136,398.008 571.575,424.051 600.744,401.282" style="fill:none;stroke:rgb(146,157,169);stroke-width:9.11px;"/>
        </g>
        <g transform="matrix(1.83581,0,0,1.83581,-204.291,-652.404)">
            <path d="M535.813,445.756C535.813,445.756 554.933,466.66 582.817,461.49" style="fill:none;stroke:rgb(146,157,169);stroke-width:9.11px;"/>
        </g>
        <g transform="matrix(1.83581,0,0,1.83581,-204.291,-652.404)">
            <path d="M602.216,453.892C605.915,451.666 609.705,448.93 613.569,445.605" style="fill:none;stroke:rgb(146,157,169);stroke-width:9.11px;"/>
        </g>
        <g transform="matrix(1.83581,0,0,1.83581,-204.291,-652.404)">
            <path d="M520.428,484.22C520.428,484.22 565.944,532.3 615.626,491.913" style="fill:none;stroke:rgb(146,157,169);stroke-width:9.11px;"/>
        </g>
        <g transform="matrix(1.83581,0,0,1.83581,-204.291,-652.404)">
            <path d="M518.825,507.939C518.825,507.939 548.635,549.929 603.446,528.453" style="fill:none;stroke:rgb(146,157,169);stroke-width:9.11px;"/>
        </g>
        <g transform="matrix(-1.83581,0,0,1.83581,1289.93,-643.21)">
            <path d="M561.136,398.008C561.136,398.008 564.564,412.717 579.993,410.392" style="fill:none;stroke:rgb(146,157,169);stroke-width:9.11px;"/>
        </g>
        <g transform="matrix(-1.83581,0,0,1.83581,1289.93,-643.21)">
            <path d="M592.341,407.186C595.055,405.779 597.971,403.901 601.099,401.459" style="fill:none;stroke:rgb(146,157,169);stroke-width:9.11px;"/>
        </g>
        <g transform="matrix(-1.83581,0,0,1.83581,1289.93,-643.21)">
            <path d="M535.813,445.756C535.813,445.756 551.225,462.998 574.856,462.066" style="fill:none;stroke:rgb(146,157,169);stroke-width:9.11px;"/>
        </g>
        <g transform="matrix(-1.83581,0,0,1.83581,1289.93,-643.21)">
            <path d="M599.502,454.616C603.722,452.22 608.076,449.162 612.54,445.321" style="fill:none;stroke:rgb(146,157,169);stroke-width:9.11px;"/>
        </g>
        <g transform="matrix(-1.83581,0,0,1.83581,1289.93,-643.21)">
            <path d="M520.428,484.22C520.428,484.22 565.944,532.3 615.626,491.913" style="fill:none;stroke:rgb(146,157,169);stroke-width:9.11px;"/>
        </g>
        <g transform="matrix(-1.83581,0,0,1.83581,1289.93,-643.21)">
            <path d="M518.825,507.939C518.825,507.939 548.208,548.698 603.019,527.222" style="fill:none;stroke:rgb(146,157,169);stroke-width:9.11px;"/>
        </g>
        <g transform="matrix(1.83581,0,0,1.83581,-204.291,-652.404)">
            <path d="M259.911,528.282C259.911,528.282 250.411,358.782 405.911,358.782C561.411,358.782 560.48,515.853 565.895,525.352C577.383,545.505 589.465,550.586 585.226,579.504C582.755,596.355 573.096,616.619 531.407,599.211C471.39,574.149 469.318,563.3 409.396,564.712C354.207,566.013 316.114,585.236 294.164,592.151C284.256,595.273 255.573,623.293 241.411,587.203C229.159,555.98 259.911,528.282 259.911,528.282Z" style="fill:rgb(62,145,227);stroke:rgb(146,157,169);stroke-width:9.11px;"/>
        </g>
        <g transform="matrix(1.83581,0,0,1.83581,-204.291,-652.404)">
            <path d="M572.506,531.662C569.97,533.352 553.033,515.557 522.528,498.939" style="fill:none;stroke:rgb(146,157,169);stroke-width:9.11px;"/>
        </g>
        <g transform="matrix(1.83581,0,0,1.83581,-204.291,-652.404)">
            <path d="M466.768,477.493C453.04,474.273 438.023,472.179 421.743,471.845C390.901,471.214 365.743,474.635 345.118,480.076" style="fill:none;stroke:rgb(146,157,169);stroke-width:9.11px;"/>
        </g>
        <g transform="matrix(1.83581,0,0,1.83581,-204.291,-652.404)">
            <path d="M317.103,489.643C289.729,501.328 273.464,515.803 262.884,523.494" style="fill:none;stroke:rgb(146,157,169);stroke-width:9.11px;"/>
        </g>
        <g transform="matrix(1.27076,0,0,1.27076,-193.91,-280.46)">
            <path d="M421.291,324.47C408.682,310.626 371.572,455.693 389.238,434.652C421.137,396.661 509.533,374.667 594.673,378.77C688.325,383.283 778.088,417.884 788.292,437.352C794.878,449.916 762.396,332.737 753.034,335.384C713.514,356.361 661.137,367.16 595.975,367.837C539.503,368.139 454.117,360.511 421.291,324.47Z" style="fill:rgb(46,115,183);"/>
        </g>
        <g transform="matrix(1.27076,0,0,1.27076,-193.91,-280.46)">
            <path d="M369.219,551.227C396.337,536.883 522.168,486.167 586.09,489.099C648.647,491.968 780.048,530.261 792.975,550.381C798.069,558.309 797.501,570.354 790.533,566.834C758.107,550.452 628.924,504.34 583.817,504.769C521.201,505.363 387.558,557.168 381.005,565.958C379.853,567.503 378.455,567.96 377.003,567.679C371.213,566.556 364.565,553.688 369.219,551.227Z" style="fill:rgb(46,115,183);"/>
        </g>
        <g transform="matrix(1.83581,0,0,1.83581,-207.963,-652.404)">
            <path d="M387.581,728.979C389.888,730.261 439.134,742.733 461.893,725.902C466.998,722.127 465.281,734.617 464.765,736.415C463.968,739.194 440.569,747.401 440.569,747.401C440.569,747.401 438.097,754.365 438.353,760.52C438.61,766.674 423.737,764.622 423.737,764.622C418.74,762.719 422.421,751.223 416.044,748.98C404.773,745.016 383.75,739.003 385.529,736.928C385.529,736.928 385.273,727.697 387.581,728.979Z" style="fill:rgb(70,87,111);stroke:rgb(70,87,111);stroke-width:5.71px;"/>
        </g>
        <g transform="matrix(1.83581,0,0,1.83581,-207.963,-652.404)">
            <path d="M294.133,699.023C294.99,694.523 311.385,691.881 314.688,699.484C315.574,701.524 321.791,714.058 314.79,720.829C310.492,724.988 301.713,727.24 294.533,720.317C287.353,713.393 291.055,700.561 294.133,699.023Z" style="fill:rgb(70,87,111);stroke:rgb(70,87,111);stroke-width:5.71px;"/>
        </g>
        <g transform="matrix(1.83581,0,0,1.83581,228.767,-652.404)">
            <path d="M294.133,699.023C294.99,694.523 311.385,691.881 314.688,699.484C315.574,701.524 321.791,714.058 314.79,720.829C310.492,724.988 301.713,727.24 294.533,720.317C287.353,713.393 291.055,700.561 294.133,699.023Z" style="fill:rgb(70,87,111);stroke:rgb(70,87,111);stroke-width:5.71px;"/>
        </g>
        <g transform="matrix(1.83581,0,0,1.83581,-207.963,-652.404)">
            <path d="M245.122,733.014C245.836,737.295 247.77,739.512 248.01,740.235" style="fill:none;stroke:rgb(70,87,111);stroke-width:5.71px;"/>
        </g>
        <g transform="matrix(1.83581,0,0,1.83581,-207.963,-652.404)">
            <path d="M258.908,731.307C259.061,731.997 259.663,734.704 261.665,739.709" style="fill:none;stroke:rgb(70,87,111);stroke-width:5.71px;"/>
        </g>
        <g transform="matrix(1.83581,0,0,1.83581,-182.873,-652.404)">
            <path d="M258.908,731.307C259.061,731.997 259.663,734.704 261.665,739.709" style="fill:none;stroke:rgb(70,87,111);stroke-width:5.71px;"/>
        </g>
        <g transform="matrix(1.83581,0,0,1.83581,367.528,-648.427)">
            <path d="M245.122,733.014C245.836,737.295 247.77,739.512 248.01,740.235" style="fill:none;stroke:rgb(70,87,111);stroke-width:5.71px;"/>
        </g>
        <g transform="matrix(1.83581,0,0,1.83581,367.528,-648.427)">
            <path d="M258.908,731.307C259.061,731.997 259.663,734.704 261.665,739.709" style="fill:none;stroke:rgb(70,87,111);stroke-width:5.71px;"/>
        </g>
        <g transform="matrix(1.83581,0,0,1.83581,392.619,-648.427)">
            <path d="M258.908,731.307C259.061,731.997 259.663,734.704 261.665,739.709" style="fill:none;stroke:rgb(70,87,111);stroke-width:5.71px;"/>
        </g>
        <g transform="matrix(2.14549,0,0,2.14549,-329.441,-979.056)">
            <path d="M510.57,957.031C510.57,957.031 454.156,956.069 440.052,964.724C425.949,973.378 429.475,997.097 429.795,997.418C430.116,997.738 453.515,1002.87 453.515,1002.87L437.168,1016.33C437.168,1016.33 432.68,1054.79 439.411,1054.79C446.142,1054.79 500.954,1045.18 504.159,1044.22C507.364,1043.25 510.71,974.557 511.531,964.762" style="fill:rgb(94,114,136);stroke:rgb(146,157,169);stroke-width:7.8px;"/>
        </g>
        <g transform="matrix(1.83581,0,0,1.83581,-182.262,-652.404)">
            <path d="M568.591,930.091C568.591,930.091 529.727,938.505 511.296,936.501C492.865,934.498 481.647,926.485 481.647,938.505C481.647,950.525 491.237,969.481 497.634,968.908C498.399,968.84 476.821,981.885 474.793,986.267C467.077,1002.94 477.411,1011.12 493.098,1011.88C514.037,1012.89 495.703,1015.15 485.945,1021.75C473.781,1029.98 468.394,1048.76 492.974,1062.3C509.801,1071.58 589.37,1044.72 621.718,1034.74C671.651,1019.32 723.523,967.339 713.612,899.915C704.77,839.766 673.909,810.535 630.098,786.637" style="fill:rgb(250,250,251);stroke:rgb(146,157,169);stroke-width:9.11px;"/>
        </g>
        <g transform="matrix(1.7189,-0.644651,0.644651,1.7189,-787.726,-163.572)">
            <path d="M456.994,928.334C456.994,928.334 816.002,671.746 857.086,698.158C898.17,724.569 912.095,803.048 892.531,825.546C872.967,848.044 497.452,959.178 472.201,968.893C450.559,977.219 358.229,1012.5 335.188,1037.75C325.059,1048.85 335.144,1068.49 321.267,1074.82C304.907,1082.29 263.084,1016.19 278.568,997.645C289.693,984.32 299.104,1003.33 314.035,999.528C369.293,985.465 456.994,928.334 456.994,928.334Z" style="fill:rgb(220,157,119);stroke:rgb(146,157,169);stroke-width:9.03px;"/>
        </g>
        <g transform="matrix(1.27076,0,0,1.27076,-193.91,-280.46)">
            <path d="M1067.72,754.791C1065.25,735.02 628.293,1168.79 494.406,1281.47L462.615,1305.92C447.788,1301.33 435.753,1299.75 432.047,1307.14C431.276,1307.74 431.437,1309.29 432.335,1311.51C438.373,1326.48 474.154,1364.77 490.737,1360.94C505.686,1357.49 494.578,1341.41 491.343,1330.04C486.906,1314.43 647.699,1143.91 655.072,1148.64C655.072,1148.64 1009.17,871.763 1040.96,846.085C1072.76,820.408 1110.66,782.504 1110.66,782.504C1090.63,779.23 1075.17,771.195 1067.72,754.791Z" style="fill:rgb(188,123,82);"/>
        </g>
        <g transform="matrix(1.18983,-0.446232,0.446232,1.18983,-668.022,188.777)">
            <path d="M1222.5,743.462C1212.43,731.483 1207.78,775.288 1221.27,820.385" style="fill:none;stroke:rgb(146,157,169);stroke-width:13.04px;"/>
        </g>
        <g transform="matrix(1.18983,-0.446232,0.446232,1.18983,-668.022,188.777)">
            <path d="M1237.2,857.476C1243.41,867.927 1251,877.491 1260.17,885.298" style="fill:none;stroke:rgb(146,157,169);stroke-width:13.04px;"/>
        </g>
        <g transform="matrix(1.27076,0,0,1.27076,-193.91,-280.46)">
            <path d="M1054.17,640.426C1039.71,647.848 1062.71,684.086 1083.02,706.883C1104.42,730.906 1134.13,746.881 1134.95,733.367C1137,699.418 1069.23,632.699 1054.17,640.426Z" style="fill:rgb(188,123,82);"/>
        </g>
        <g transform="matrix(2.14549,0,0,2.14549,-329.441,-979.056)">
            <path d="M382.356,965.365C382.356,965.365 416.653,963.121 418.897,970.493C421.141,977.865 424.026,991.969 424.026,999.982C424.026,1008 403.832,1011.52 403.832,1014.73C403.832,1017.93 409.602,1017.93 418.577,1021.14C427.552,1024.34 428.193,1054.47 428.193,1054.47C428.193,1054.47 358.316,1053.19 352.867,1045.82C347.418,1038.45 350.944,969.211 350.944,969.211L382.356,965.365Z" style="fill:rgb(94,114,136);stroke:rgb(146,157,169);stroke-width:7.8px;"/>
        </g>
        <g transform="matrix(1.83581,0,0,1.83581,-182.262,-652.404)">
            <path d="M201.283,789.215C194.831,784.145 125.551,833.15 120.649,901.902C116.363,962.024 155.768,1015.72 228.328,1039.51C297.739,1062.27 334.188,1058.52 352.065,1061.94C380.101,1067.29 393.256,1053.63 388.415,1036.1C386.215,1028.14 381.587,1015.99 361.824,1018.26C360.704,1018.39 379.175,1015.94 380.862,992.724C381.906,978.356 360.786,973.778 363.911,974.222C368.589,974.887 382.274,965.713 380.215,946.759C378.018,926.526 355.01,928.292 343.585,929.044C310.104,931.245 290.147,924.526 284.69,912.136" style="fill:rgb(250,250,251);stroke:rgb(146,157,169);stroke-width:9.11px;"/>
        </g>
        <g transform="matrix(0.169684,0,0,0.174545,485.654,-14.0914)">
            <path d="M201.062,787.793L623.312,787.898L620.609,1010.41C572.288,974.021 496.914,968.044 453.926,942.324L280.982,975.973L180.033,853.113L201.062,787.793Z" style="fill:rgb(250,250,251);"/>
        </g>
        <g transform="matrix(0.169684,0,0,0.174545,485.654,-14.0914)">
            <path d="M474.402,817.694C486.167,817.397 496.921,817.053 506.146,816.694C522.41,816.061 533.923,815.38 537.845,814.824C542.25,814.199 554.942,813.702 570.657,810.618" style="fill:rgb(250,250,251);stroke:rgb(70,87,111);stroke-width:32.41px;"/>
        </g>
        <g transform="matrix(0.169684,0,0,0.174545,485.654,-14.0914)">
            <path d="M598.919,802.552C621.336,793.789 642.564,778.039 654.58,750.065" style="fill:rgb(250,250,251);stroke:rgb(70,87,111);stroke-width:97.22px;"/>
        </g>
        <g transform="matrix(0.169684,0,0,0.174545,485.654,-14.0914)">
            <path d="M662.022,725.267C675.793,652.618 636.434,619.172 615.374,596.185C614.846,595.608 633.445,591.366 661.689,580.72C709.325,562.766 695.935,542.547 666.186,518.986C643.848,501.294 606.677,486.072 602.701,491.905L518.37,461.565C518.37,461.565 493.37,447.965 378.97,445.565C264.57,443.165 243.345,487.475 221.77,486.365C199.166,485.202 132.093,524.245 124.662,530.262C107.67,544.02 86.498,562.894 121.908,583.066C151.157,599.728 194.268,593.047 184.169,603.206C174.07,613.365 132.569,655.77 148.169,717.606C150.521,726.929 153.733,735.347 157.673,742.958" style="fill:rgb(250,250,251);stroke:rgb(70,87,111);stroke-width:32.41px;"/>
        </g>
        <g transform="matrix(0.169684,0,0,0.174545,485.654,-14.0914)">
            <path d="M171.854,763.824C196.253,791.816 233.313,804.755 270.169,812.242" style="fill:rgb(250,250,251);stroke:rgb(70,87,111);stroke-width:32.41px;"/>
        </g>
        <g transform="matrix(0.169684,0,0,0.174545,483.617,-14.0914)">
            <path d="M299.055,497.096C299.055,497.096 270.696,422.375 250.555,391.097C234.373,365.967 219.977,388.637 213.116,400.046C205.058,413.444 198.098,444.736 196.555,458.097C194.666,474.452 191.553,543.114 238.055,548.096C275.534,552.112 282.113,534.214 287.555,529.096C297.531,519.713 299.055,489.512 299.055,497.096Z" style="fill:rgb(146,157,169);stroke:rgb(70,87,111);stroke-width:32.41px;"/>
        </g>
        <g transform="matrix(-0.169684,0,0,0.174545,621.763,-14.1786)">
            <path d="M299.055,497.096C299.055,497.096 270.696,422.375 250.555,391.097C234.373,365.967 219.977,388.637 213.116,400.046C205.058,413.444 196.914,448.342 196.555,458.097C196.245,466.505 191.553,543.114 238.055,548.096C275.534,552.112 282.113,534.214 287.555,529.096C297.531,519.713 299.055,489.512 299.055,497.096Z" style="fill:rgb(146,157,169);stroke:rgb(70,87,111);stroke-width:32.41px;"/>
        </g>
        <g transform="matrix(0.117456,0,0,0.120821,484.577,21.2724)">
            <path d="M298.529,336.895C298.903,330.164 270.995,418.793 310.048,466.109C326.473,486.009 376.967,502.847 376.967,502.847C376.967,502.847 384.296,444.073 386.3,426.293C388.021,411.012 373.487,334.56 368.491,338.581C350.754,352.857 300.837,363.75 298.529,336.895Z" style="fill:rgb(107,127,150);"/>
        </g>
        <g transform="matrix(0.117456,0,0,0.120821,484.577,21.2724)">
            <path d="M298.529,336.895C298.903,330.164 270.995,418.793 310.048,466.109C326.473,486.009 376.967,502.847 376.967,502.847C376.967,502.847 384.296,444.073 386.3,426.293C388.021,411.012 373.487,334.56 368.491,338.581C350.754,352.857 300.837,363.75 298.529,336.895Z" style="fill:rgb(107,127,150);"/>
        </g>
        <g transform="matrix(0.117456,0,0,0.120821,484.577,21.2724)">
            <path d="M298.529,336.895C298.903,330.164 270.995,418.793 310.048,466.109C326.473,486.009 376.967,502.847 376.967,502.847C376.967,502.847 384.296,444.073 386.3,426.293C388.021,411.012 373.487,334.56 368.491,338.581C350.754,352.857 300.837,363.75 298.529,336.895Z" style="fill:rgb(107,127,150);"/>
        </g>
        <g transform="matrix(-0.117456,0,0,0.120821,620.74,21.8397)">
            <path d="M298.529,336.895C298.903,330.164 270.995,418.793 310.048,466.109C326.473,486.009 376.967,502.847 376.967,502.847C376.967,502.847 384.296,444.073 386.3,426.293C388.021,411.012 373.487,334.56 368.491,338.581C350.754,352.857 300.837,363.75 298.529,336.895Z" style="fill:rgb(107,127,150);"/>
        </g>
        <g transform="matrix(0.169684,0,0,0.174545,483.617,-14.0914)">
            <path d="M561.136,398.008C561.136,398.008 571.575,424.051 600.744,401.282" style="fill:none;stroke:rgb(70,87,111);stroke-width:32.41px;"/>
        </g>
        <g transform="matrix(0.169684,0,0,0.174545,483.617,-14.0914)">
            <path d="M535.813,445.756C535.813,445.756 554.933,466.66 582.817,461.49" style="fill:none;stroke:rgb(70,87,111);stroke-width:32.41px;"/>
        </g>
        <g transform="matrix(0.169684,0,0,0.174545,483.617,-14.0914)">
            <path d="M602.216,453.892C605.915,451.666 609.705,448.93 613.569,445.605" style="fill:none;stroke:rgb(70,87,111);stroke-width:32.41px;"/>
        </g>
        <g transform="matrix(0.169684,0,0,0.174545,483.617,-14.0914)">
            <path d="M520.428,484.22C520.428,484.22 565.944,532.3 615.626,491.913" style="fill:none;stroke:rgb(70,87,111);stroke-width:32.41px;"/>
        </g>
        <g transform="matrix(0.169684,0,0,0.174545,483.617,-14.0914)">
            <path d="M518.825,507.939C518.825,507.939 548.635,549.929 603.446,528.453" style="fill:none;stroke:rgb(70,87,111);stroke-width:32.41px;"/>
        </g>
        <g transform="matrix(-0.169684,0,0,0.174545,621.728,-13.2172)">
            <path d="M561.136,398.008C561.136,398.008 564.564,412.717 579.993,410.392" style="fill:none;stroke:rgb(70,87,111);stroke-width:32.41px;"/>
        </g>
        <g transform="matrix(-0.169684,0,0,0.174545,621.728,-13.2172)">
            <path d="M592.341,407.186C595.055,405.779 597.971,403.901 601.099,401.459" style="fill:none;stroke:rgb(70,87,111);stroke-width:32.41px;"/>
        </g>
        <g transform="matrix(-0.169684,0,0,0.174545,621.728,-13.2172)">
            <path d="M535.813,445.756C535.813,445.756 551.225,462.998 574.856,462.066" style="fill:none;stroke:rgb(70,87,111);stroke-width:32.41px;"/>
        </g>
        <g transform="matrix(-0.169684,0,0,0.174545,621.728,-13.2172)">
            <path d="M599.502,454.616C603.722,452.22 608.076,449.162 612.54,445.321" style="fill:none;stroke:rgb(70,87,111);stroke-width:32.41px;"/>
        </g>
        <g transform="matrix(-0.169684,0,0,0.174545,621.728,-13.2172)">
            <path d="M520.428,484.22C520.428,484.22 565.944,532.3 615.626,491.913" style="fill:none;stroke:rgb(70,87,111);stroke-width:32.41px;"/>
        </g>
        <g transform="matrix(-0.169684,0,0,0.174545,621.728,-13.2172)">
            <path d="M518.825,507.939C518.825,507.939 548.208,548.698 603.019,527.222" style="fill:none;stroke:rgb(70,87,111);stroke-width:32.41px;"/>
        </g>
        <g transform="matrix(0.169684,0,0,0.174545,483.617,-14.0914)">
            <path d="M259.911,528.282C259.911,528.282 250.411,358.782 405.911,358.782C561.411,358.782 560.48,515.853 565.895,525.352C577.383,545.505 589.465,550.586 585.226,579.504C582.755,596.355 573.096,616.619 531.407,599.211C471.39,574.149 469.318,563.3 409.396,564.712C354.207,566.013 316.114,585.236 294.164,592.151C284.256,595.273 255.573,623.293 241.411,587.203C229.159,555.98 259.911,528.282 259.911,528.282Z" style="fill:rgb(85,169,253);stroke:rgb(70,87,111);stroke-width:32.41px;"/>
        </g>
        <g transform="matrix(1.27076,0,0,1.27076,-193.91,-280.46)">
            <path d="M586.819,264.196L589.142,264.798L589.443,266.562L589.744,267.896L589.228,268.885L586.13,268.584L585.485,267.207L585.829,266.132L585.184,265.185L586.819,264.196Z" style="fill:rgb(250,250,251);stroke:rgb(70,87,111);stroke-opacity:0.88;stroke-width:1.1px;"/>
        </g>
        <g transform="matrix(0.169684,0,0,0.174545,483.617,-14.0914)">
            <path d="M572.506,531.662C569.97,533.352 553.033,515.557 522.528,498.939" style="fill:none;stroke:rgb(70,87,111);stroke-width:32.41px;"/>
        </g>
        <g transform="matrix(0.169684,0,0,0.174545,483.617,-14.0914)">
            <path d="M466.768,477.493C453.04,474.273 438.023,472.179 421.743,471.845C390.901,471.214 365.743,474.635 345.118,480.076" style="fill:none;stroke:rgb(70,87,111);stroke-width:32.41px;"/>
        </g>
        <g transform="matrix(0.169684,0,0,0.174545,483.617,-14.0914)">
            <path d="M317.103,489.643C289.729,501.328 273.464,515.803 262.884,523.494" style="fill:none;stroke:rgb(70,87,111);stroke-width:32.41px;"/>
        </g>
        <g transform="matrix(0.169684,0,0,0.174545,483.278,-14.0914)">
            <path d="M387.581,728.979C389.888,730.261 439.134,742.733 461.893,725.902C466.998,722.127 465.281,734.617 464.765,736.415C463.968,739.194 440.569,747.401 440.569,747.401C440.569,747.401 438.097,754.365 438.353,760.52C438.61,766.674 423.737,764.622 423.737,764.622C418.74,762.719 422.421,751.223 416.044,748.98C404.773,745.016 383.75,739.003 385.529,736.928C385.529,736.928 385.273,727.697 387.581,728.979Z" style="fill:rgb(70,87,111);stroke:rgb(70,87,111);stroke-width:32.41px;"/>
        </g>
        <g transform="matrix(0.169684,0,0,0.174545,483.278,-14.0914)">
            <path d="M294.133,699.023C294.99,694.523 311.385,691.881 314.688,699.484C315.574,701.524 321.791,714.058 314.79,720.829C310.492,724.988 301.713,727.24 294.533,720.317C287.353,713.393 291.055,700.561 294.133,699.023Z" style="fill:rgb(70,87,111);stroke:rgb(70,87,111);stroke-width:32.41px;"/>
        </g>
        <g transform="matrix(0.169684,0,0,0.174545,482.408,-10.231)">
            <path d="M570.034,709.906C570.269,715.311 571.214,715.085 572.397,720.41" style="fill:none;stroke:rgb(70,87,111);stroke-width:60.9px;"/>
        </g>
        <g transform="matrix(0.169684,0,0,0.174545,482.408,-10.231)">
            <path d="M580.406,710.038C580.978,716.337 582.239,717.249 583.819,720.41" style="fill:none;stroke:rgb(70,87,111);stroke-width:60.9px;"/>
        </g>
        <g transform="matrix(0.169684,0,0,0.174545,482.408,-10.231)">
            <path d="M596.292,706.755C597.009,709.623 597.258,709.477 600.887,716.734" style="fill:none;stroke:rgb(70,87,111);stroke-width:60.9px;"/>
        </g>
        <g transform="matrix(0.169684,0,0,0.174545,483.278,-14.0914)">
            <path d="M245.122,733.014C245.836,737.295 247.77,739.512 248.01,740.235" style="fill:none;stroke:rgb(70,87,111);stroke-width:32.41px;"/>
        </g>
        <g transform="matrix(0.169684,0,0,0.174545,483.278,-14.0914)">
            <path d="M258.908,731.307C259.061,731.997 259.663,734.704 261.665,739.709" style="fill:none;stroke:rgb(70,87,111);stroke-width:32.41px;"/>
        </g>
        <g transform="matrix(0.169684,0,0,0.174545,483.278,-14.0914)">
            <path d="M274.794,731.044C275.704,731.651 279.313,736.292 279.914,738.397" style="fill:none;stroke:rgb(70,87,111);stroke-width:32.41px;"/>
        </g>
        <g transform="matrix(0.198308,0,0,0.203989,472.05,-45.1488)">
            <path d="M510.57,957.031C510.57,957.031 454.156,956.069 440.052,964.724C425.949,973.378 429.475,997.097 429.795,997.418C430.116,997.738 453.515,1002.87 453.515,1002.87L437.168,1016.33C437.168,1016.33 432.68,1054.79 439.411,1054.79C446.142,1054.79 500.954,1045.18 504.159,1044.22C507.364,1043.25 510.71,974.557 511.531,964.762" style="fill:rgb(146,157,169);stroke:rgb(70,87,111);stroke-width:27.73px;"/>
        </g>
        <g transform="matrix(0.169684,0,0,0.174545,485.654,-14.0914)">
            <path d="M568.591,930.091C568.591,930.091 529.727,938.505 511.296,936.501C492.865,934.498 481.647,926.485 481.647,938.505C481.647,950.525 491.237,969.481 497.634,968.908C498.399,968.84 476.821,981.885 474.793,986.267C467.077,1002.94 477.411,1011.12 493.098,1011.88C514.037,1012.89 495.703,1015.15 485.945,1021.75C473.781,1029.98 468.394,1048.76 492.974,1062.3C509.801,1071.58 589.37,1044.72 621.718,1034.74C671.651,1019.32 723.523,967.339 713.612,899.915C704.77,839.766 673.909,810.535 630.098,786.637" style="fill:rgb(250,250,251);stroke:rgb(70,87,111);stroke-width:32.41px;"/>
        </g>
        <g transform="matrix(0.158878,-0.0612922,0.0595852,0.163429,429.69,32.3859)">
            <path d="M456.994,928.334C456.994,928.334 816.002,671.746 857.086,698.158C898.17,724.569 912.095,803.048 892.531,825.546C872.967,848.044 497.452,959.178 472.201,968.893C450.559,977.219 358.229,1012.5 335.188,1037.75C325.059,1048.85 335.144,1068.49 321.267,1074.82C304.907,1082.29 263.084,1016.19 278.568,997.645C289.693,984.32 299.104,1003.33 314.035,999.528C369.293,985.465 456.994,928.334 456.994,928.334Z" style="fill:rgb(220,157,119);stroke:rgb(70,87,111);stroke-width:32.41px;"/>
        </g>
        <g transform="matrix(0.117456,0,0,0.120821,484.577,21.2724)">
            <path d="M1067.72,754.791C1065.25,735.02 628.293,1168.79 494.406,1281.47L462.615,1305.92C447.788,1301.33 435.753,1299.75 432.047,1307.14C431.276,1307.74 431.437,1309.29 432.335,1311.51C438.373,1326.48 474.154,1364.77 490.737,1360.94C505.686,1357.49 494.578,1341.41 491.343,1330.04C486.906,1314.43 647.699,1143.91 655.072,1148.64C655.072,1148.64 1009.17,871.763 1040.96,846.085C1072.76,820.408 1110.66,782.504 1110.66,782.504C1090.63,779.23 1075.17,771.195 1067.72,754.791Z" style="fill:rgb(188,123,82);"/>
        </g>
        <g transform="matrix(0.109976,-0.0424269,0.0412453,0.113127,440.755,65.8865)">
            <path d="M1222.5,743.462C1212.43,731.483 1207.78,775.288 1221.27,820.385" style="fill:none;stroke:rgb(70,87,111);stroke-width:46.82px;"/>
        </g>
        <g transform="matrix(0.109976,-0.0424269,0.0412453,0.113127,440.755,65.8865)">
            <path d="M1237.2,857.476C1243.41,867.927 1251,877.491 1260.17,885.298" style="fill:none;stroke:rgb(70,87,111);stroke-width:46.82px;"/>
        </g>
        <g transform="matrix(0.198308,0,0,0.203989,472.05,-45.1488)">
            <path d="M382.356,965.365C382.356,965.365 416.653,963.121 418.897,970.493C421.141,977.865 424.026,991.969 424.026,999.982C424.026,1008 403.832,1011.52 403.832,1014.73C403.832,1017.93 409.602,1017.93 418.577,1021.14C427.552,1024.34 428.193,1054.47 428.193,1054.47C428.193,1054.47 358.316,1053.19 352.867,1045.82C347.418,1038.45 350.944,969.211 350.944,969.211L382.356,965.365Z" style="fill:rgb(146,157,169);stroke:rgb(70,87,111);stroke-width:27.73px;"/>
        </g>
        <g transform="matrix(0.169684,0,0,0.174545,485.654,-14.0914)">
            <path d="M201.283,789.215C194.831,784.145 125.551,833.15 120.649,901.902C116.363,962.024 155.768,1015.72 228.328,1039.51C297.739,1062.27 333.865,1061.76 352.065,1061.94C398.807,1062.4 404.704,1027.96 361.169,1020.23C355.454,1019.21 391.199,1010.53 380.862,992.724C373.827,980.607 361.302,983.282 362.888,977.973C363.654,975.41 374.3,947.505 375.611,941.985C380.193,922.695 353.883,929.044 343.585,929.044C310.032,929.044 290.147,924.526 284.69,912.136" style="fill:rgb(250,250,251);stroke:rgb(70,87,111);stroke-width:32.41px;"/>
        </g>
        <g transform="matrix(0.169684,0,0,0.174545,523.645,-14.0914)">
            <path d="M294.133,699.023C294.99,694.523 311.385,691.881 314.688,699.484C315.574,701.524 321.791,714.058 314.79,720.829C310.492,724.988 301.713,727.24 294.533,720.317C287.353,713.393 291.055,700.561 294.133,699.023Z" style="fill:rgb(70,87,111);stroke:rgb(70,87,111);stroke-width:32.41px;"/>
        </g>
    </g>
</svg>
